<?xml version="1.0" encoding="UTF-8"?>
<svg id="Layer_1" data-name="Layer 1" xmlns="http://www.w3.org/2000/svg" viewBox="0 0 939.29 158.07">
  <defs>
    <style>
      .cls-1 {
        fill: #ff6700;
      }

      .cls-2 {
        fill: #0f1fea;
      }
    </style>
  </defs>
  <path class="cls-1" d="m700.68,104.12c0,10.71-2.57,20.11-7.79,28.21-5.18,8.1-12.58,14.41-22.2,18.94-9.58,4.53-20.76,6.79-33.52,6.79-11.14,0-21.42-1.87-30.78-5.66-9.36-3.83-17.33-9.18-23.85-16.19l14.76-14.5,10.66-10.45c2.22,3.22,5.4,5.96,9.45,8.18.78.44,1.61.87,2.48,1.26,5.27,2.48,10.8,3.7,16.59,3.7,4.92,0,9.27-.87,13.06-2.57,3.79-1.7,6.75-4.18,8.92-7.36,2.13-3.18,3.22-7.01,3.22-11.49s-1.13-8.27-3.35-11.49c-2.22-3.18-5.4-5.57-9.45-7.23-4.09-1.65-8.97-2.44-14.63-2.44-2.96,0-6.05.17-9.23.52-3.18.39-5.7.96-7.62,1.65t-.09.04v-21.85l.09-.09,26.77-28.9h-26.77V0h79.96v21.63l-34.39,36.56c6.18.61,11.84,2.39,16.98,5.44,6.4,3.79,11.45,9.14,15.15,16.06,3.74,6.92,5.57,15.06,5.57,24.42Z"/>
  <path class="cls-1" d="m813.17,75.69c-4.83-7.95-11.3-14.27-19.4-18.95-8.1-4.68-17.13-7.02-27.09-7.02-.2,0-.37.02-.56.02L803.91,0h-44.59l-45.26,63.76c-8.92,13.08-13.38,26.08-13.38,39.01,0,10.41,2.64,19.81,7.92,28.2,5.27,8.4,12.41,15.01,21.4,19.84,8.99,4.83,19.13,7.25,30.43,7.25s21.66-2.45,30.65-7.36c8.99-4.9,16.12-11.51,21.4-19.84,5.27-8.32,7.91-17.76,7.91-28.31,0-9.95-2.42-18.91-7.24-26.86Zm-33.66,37.68c-1.86,3.49-4.42,6.21-7.69,8.14-3.27,1.93-7.06,2.9-11.37,2.9s-7.88-.97-11.15-2.9c-3.27-1.93-5.83-4.64-7.69-8.14-1.86-3.49-2.79-7.39-2.79-11.7s.93-8.17,2.79-11.59c1.86-3.42,4.42-6.13,7.69-8.14,3.27-2.01,6.98-3.01,11.15-3.01s8.1.97,11.37,2.9c3.27,1.93,5.83,4.65,7.69,8.14,1.86,3.5,2.79,7.4,2.79,11.71s-.93,8.21-2.79,11.7Z"/>
  <path class="cls-1" d="m921.3,77.25c-4.16-7.95-10.29-14.34-18.39-19.17-8.1-4.83-18.17-7.24-30.21-7.24-4.76,0-8.88.37-12.37,1.11-.95.2-1.88.44-2.8.71l2.48-19.44h58.84V0h-90.74l-7.8,72.68,15.61,14.27c3.42-2.53,7.24-4.5,11.48-5.91,4.24-1.41,8.88-2.12,13.93-2.12,5.64,0,10.48.97,14.49,2.9,4.01,1.93,7.1,4.61,9.25,8.03,2.15,3.42,3.23,7.43,3.23,12.04s-1.08,8.59-3.23,11.93c-2.16,3.34-5.13,5.94-8.92,7.8-3.79,1.86-8.29,2.79-13.49,2.79-5.8,0-11.34-1.23-16.61-3.68-5.28-2.45-9.25-5.61-11.93-9.48l-25.42,24.97c6.39,6.99,14.52,12.37,24.41,16.16,9.88,3.79,20.25,5.68,31.1,5.68,12.93,0,24.11-2.31,33.55-6.91,9.44-4.61,16.76-11.04,21.96-19.29,5.2-8.25,7.8-17.72,7.8-28.43,0-9.51-2.08-18.24-6.24-26.19Z"/>
  <path class="cls-2" d="m423.13,81.93c-3.27-3.25-7.15-5.94-11.6-8.14,3.05-1.71,5.8-3.66,8.14-5.91,7.2-6.9,10.83-15.65,10.83-26.2,0-7.86-1.95-14.93-5.8-21.17-3.88-6.24-9.4-11.22-16.61-14.93C400.89,1.86,392.36,0,382.55,0h-71.77v158.08h70.23c11,0,20.54-2.01,28.65-6.02,8.08-4.01,14.35-9.49,18.84-16.39,4.45-6.93,6.68-14.82,6.68-23.76,0-12.02-4.01-22.02-12.04-29.97Zm-73.11-52.27h22.96c5.2,0,9.46,1.29,12.81,3.88,3.35,2.61,5,6.65,5,12.15s-1.65,9.57-5,12.15c-3.35,2.61-7.62,3.9-12.81,3.9h-22.96V29.66Zm40.23,93.52c-3.63,3.49-8.58,5.22-14.82,5.22h-25.41v-37.89h25.41c4.15,0,7.75.77,10.81,2.34,3.05,1.57,5.39,3.79,7.04,6.68,1.62,2.91,2.45,6.21,2.45,9.93,0,5.66-1.81,10.23-5.47,13.72Z"/>
  <path class="cls-2" d="m442.08,158.06V46.37h39.02v111.69h-39.02Z"/>
  <path class="cls-2" d="m492.91,158.06V0h38.79v158.06h-38.79Z"/>
  <path class="cls-2" d="m543.74,158.06V0h38.79v158.06h-38.79Z"/>
  <circle class="cls-1" cx="461.59" cy="19.51" r="19.51"/>
  <g>
    <polygon class="cls-2" points="180.8 0 153.21 92.99 125.96 0 94.08 0 66.94 92.62 39.46 0 0 0 50.16 158.06 82.48 158.06 109.93 63.99 137.55 158.06 169.66 158.06 220.04 0 180.8 0"/>
    <path class="cls-2" d="m280.44,104.9c-.22,2.13-.7,4.18-1.44,6.18-1.22,3.4-3.18,6.49-5.88,9.18-6.92,6.88-16.76,9.01-25.51,6.36l21.77-21.72,32.78-32.69c-2.13-3.4-4.66-6.57-7.57-9.53-2.96-2.96-6.14-5.48-9.53-7.62-3-1.92-6.18-3.53-9.45-4.79-20.02-7.97-43.79-3.87-60.03,12.36-9.84,9.84-15.28,22.46-16.19,35.35-.35,4.31-.17,8.71.52,13.02,1.18,7.36,3.83,14.58,7.97,21.07,2.18,3.4,4.7,6.57,7.62,9.53,2.96,2.92,6.14,5.48,9.49,7.62,21.59,13.8,50.63,11.32,69.52-7.53,8.62-8.62,13.84-19.37,15.67-30.56.35-2.09.52-4.14.61-6.22h-30.34Zm-50.67-6.88c.83-5.14,3.22-10.06,7.18-14.02,6.88-6.88,16.76-9.01,25.47-6.36l-31.91,31.82c-1.09-3.7-1.35-7.66-.74-11.45Z"/>
  </g>
</svg>
